Coordinates
version=1
nRows=34
nColumns=38
inDegrees=no

Units are S.I. units (second, meters, Newtons, ...)
If the header above contains a line with 'inDegrees', this indicates whether rotational values are in degrees (yes) or radians (no).

endheader
time	pelvis_tilt	pelvis_list	pelvis_rotation	pelvis_tx	pelvis_ty	pelvis_tz	hip_flexion_r	hip_adduction_r	hip_rotation_r	knee_angle_r	ankle_angle_r	subtalar_angle_r	mtp_angle_r	hip_flexion_l	hip_adduction_l	hip_rotation_l	knee_angle_l	ankle_angle_l	subtalar_angle_l	mtp_angle_l	lumbar_extension	lumbar_bending	lumbar_rotation	arm_flex_r	arm_add_r	arm_rot_r	elbow_flex_r	pro_sup_r	wrist_flex_r	wrist_dev_r	arm_flex_l	arm_add_l	arm_rot_l	elbow_flex_l	pro_sup_l	wrist_flex_l	wrist_dev_l
1.28	-0.711899	1.48833	-1.00535	0.739807	0.436824	1.06132	0.317111	-0.0445639	-0.0347761	1.07602	-0.0664909	0	0	-0.0780486	0.0199465	-0.351867	0.173731	-0.128639	0	0	-0.53503	0.0818823	-0.0116455	-0.159404	-0.471576	0.19198	0.989488	0.882198	0	0	0.0523971	-0.510705	0.181129	0.854476	1.22453	0	0
1.29	-0.787142	1.48809	-0.919509	0.739823	0.424973	1.06278	0.328568	-0.0369861	-0.053236	1.03008	-0.0608159	0	0	-0.089625	0.0141318	-0.352422	0.166482	-0.135628	0	0	-0.529166	0.0924548	-0.0192421	-0.158128	-0.471295	0.193558	0.985692	0.883255	0	0	0.0567324	-0.513437	0.170904	0.864781	1.235	0	0
1.3	-0.85804	1.4871	-0.836836	0.739809	0.413062	1.06401	0.337356	-0.0295954	-0.0707345	0.979267	-0.0572775	0	0	-0.101488	0.00800064	-0.352578	0.15926	-0.141168	0	0	-0.52333	0.102945	-0.0276478	-0.157029	-0.470155	0.194789	0.981215	0.885893	0	0	0.0611046	-0.516784	0.16135	0.875454	1.24541	0	0
1.31	-0.917341	1.48533	-0.76548	0.73979	0.401241	1.065	0.34322	-0.0226481	-0.086787	0.923919	-0.0560539	0	0	-0.113723	0.00202863	-0.352638	0.152931	-0.145246	0	0	-0.518731	0.113018	-0.0360603	-0.15634	-0.468836	0.194899	0.977798	0.88963	0	0	0.0655845	-0.52066	0.15225	0.887487	1.25447	0	0
1.32	-0.968035	1.48346	-0.702425	0.739676	0.389413	1.06576	0.346858	-0.0162231	-0.101857	0.864703	-0.0597493	0	0	-0.125847	-0.00377723	-0.352473	0.147417	-0.150526	0	0	-0.515037	0.121888	-0.0481964	-0.152101	-0.464085	0.193934	0.971406	0.906579	0	0	0.0640561	-0.523172	0.129843	0.903841	1.2723	0	0
1.33	-1.01449	1.48164	-0.644589	0.739411	0.377567	1.06618	0.347649	-0.00965905	-0.114289	0.799278	-0.0607355	0	0	-0.137644	-0.00954813	-0.354103	0.142968	-0.15151	0	0	-0.510393	0.130365	-0.0519168	-0.154572	-0.464651	0.194049	0.969783	0.898938	0	0	0.0754883	-0.530288	0.137275	0.912575	1.27082	0	0
1.34	-1.04875	1.47919	-0.599274	0.739077	0.36571	1.0664	0.344422	-0.0028962	-0.12498	0.726969	-0.0686241	0	0	-0.150898	-0.0152384	-0.354935	0.137899	-0.154902	0	0	-0.508033	0.138379	-0.0576989	-0.156381	-0.460006	0.18599	0.967321	0.912345	0	0	0.0828211	-0.536142	0.135065	0.924391	1.276	0	0
1.35	-1.07654	1.47679	-0.560814	0.73867	0.35377	1.06632	0.337164	0.00407949	-0.13195	0.645835	-0.0828665	0	0	-0.16453	-0.0207601	-0.356553	0.132848	-0.159121	0	0	-0.506109	0.145032	-0.067886	-0.151129	-0.458218	0.191487	0.961572	0.916979	0	0	0.081778	-0.539848	0.116291	0.941115	1.29068	0	0
1.36	-1.10282	1.47511	-0.524749	0.738153	0.341835	1.06586	0.329854	0.00990421	-0.140163	0.564602	-0.099351	0	0	-0.177492	-0.0257611	-0.359021	0.128383	-0.159124	0	0	-0.503665	0.151097	-0.0721692	-0.152146	-0.456816	0.189823	0.959683	0.920611	0	0	0.0895292	-0.545768	0.115671	0.952837	1.29278	0	0
1.37	-1.12827	1.47491	-0.49004	0.737518	0.329841	1.06491	0.320761	0.0144557	-0.14132	0.477291	-0.119624	0	0	-0.189606	-0.0294826	-0.361077	0.124189	-0.158488	0	0	-0.500181	0.155279	-0.0760976	-0.153753	-0.455299	0.188404	0.957921	0.92336	0	0	0.0978356	-0.552548	0.117513	0.963958	1.29387	0	0
1.38	-1.1507	1.47585	-0.458418	0.736816	0.317741	1.06351	0.311488	0.0170417	-0.141328	0.392236	-0.141261	0	0	-0.201441	-0.0320623	-0.362005	0.120078	-0.157083	0	0	-0.496068	0.158008	-0.0801849	-0.155896	-0.453644	0.187209	0.956406	0.925135	0	0	0.106543	-0.560067	0.121487	0.974511	1.29436	0	0
1.39	-1.177	1.47862	-0.423195	0.735997	0.305509	1.06159	0.305177	0.01685	-0.14318	0.314767	-0.147855	0	0	-0.212068	-0.0331197	-0.361731	0.116353	-0.156543	0	0	-0.490222	0.158656	-0.0843213	-0.157887	-0.452396	0.188409	0.954212	0.92264	0	0	0.115494	-0.567564	0.126115	0.983904	1.29672	0	0
1.4	-1.2009	1.48279	-0.390709	0.735077	0.293219	1.05924	0.296873	0.0151185	-0.137767	0.234576	-0.170103	0	0	-0.222173	-0.0328353	-0.361438	0.1135	-0.152739	0	0	-0.484238	0.15744	-0.0889949	-0.160011	-0.450067	0.188471	0.952118	0.924654	0	0	0.12383	-0.576022	0.131368	0.993789	1.29743	0	0
1.41	-1.23138	1.48861	-0.352013	0.734048	0.280798	1.05643	0.2908	0.0111531	-0.131891	0.16158	-0.183038	0	0	-0.230892	-0.0312536	-0.361119	0.11201	-0.148297	0	0	-0.47694	0.154583	-0.0935397	-0.163182	-0.447729	0.188442	0.950573	0.927046	0	0	0.132459	-0.585192	0.139256	1.00275	1.29834	0	0
1.42	-1.26916	1.49543	-0.306458	0.732955	0.268246	1.05327	0.286669	0.00600348	-0.126076	0.0963146	-0.192289	0	0	-0.238776	-0.0286655	-0.360332	0.111432	-0.143352	0	0	-0.469264	0.150587	-0.0982654	-0.166454	-0.445401	0.188677	0.949437	0.929682	0	0	0.14044	-0.594756	0.147675	1.01175	1.29842	0	0
1.43	-1.31409	1.50253	-0.254507	0.731762	0.255587	1.04985	0.283625	0.000819444	-0.11947	0.0375132	-0.201646	0	0	-0.24604	-0.0261637	-0.359796	0.113004	-0.131151	0	0	-0.461416	0.145854	-0.100314	-0.17131	-0.444596	0.190053	0.949505	0.925355	0	0	0.152291	-0.605995	0.165622	1.01865	1.29073	0	0
1.44	-1.36657	1.50942	-0.194964	0.730578	0.242785	1.04631	0.284508	-0.0044033	-0.124593	0	-0.200359	0	0	-0.252979	-0.0238688	-0.358344	0.115494	-0.129465	0	0	-0.454537	0.141376	-0.104206	-0.174718	-0.442303	0.18974	0.949125	0.928312	0	0	0.1591	-0.612853	0.169315	1.02678	1.29491	0	0
1.45	-1.41983	1.51574	-0.133477	0.729456	0.229853	1.04275	0.291346	-0.00964352	-0.150564	0	-0.177354	0	0	-0.258704	-0.023043	-0.357959	0.122743	-0.111032	0	0	-0.44861	0.136824	-0.105566	-0.18031	-0.43908	0.186512	0.948545	0.926823	0	0	0.172457	-0.625364	0.191326	1.03359	1.29691	0	0
1.46	-1.47122	1.52078	-0.0754542	0.728199	0.216832	1.03934	0.295894	-0.0129083	-0.169678	0	-0.169914	0	0	-0.265581	-0.0230314	-0.357154	0.129263	-0.107437	0	0	-0.444569	0.133637	-0.10753	-0.183684	-0.437337	0.185962	0.949217	0.924956	0	0	0.180354	-0.633118	0.199827	1.04076	1.30116	0	0
1.47	-1.51188	1.52473	-0.0285905	0.726891	0.203656	1.03611	0.298201	-0.0149865	-0.184798	0	-0.164235	0	0	-0.273009	-0.0243704	-0.356341	0.137438	-0.105025	0	0	-0.442174	0.131515	-0.108992	-0.18638	-0.435837	0.185461	0.950183	0.922753	0	0	0.186935	-0.639982	0.206574	1.04764	1.30563	0	0
1.48	-1.5357	1.52761	0.000991813	0.725607	0.190283	1.03315	0.29818	-0.0160623	-0.194006	0	-0.160466	0	0	-0.281247	-0.0266929	-0.355146	0.146037	-0.103818	0	0	-0.44122	0.130725	-0.110008	-0.188192	-0.434778	0.1853	0.951065	0.920424	0	0	0.192338	-0.645	0.210962	1.05333	1.30923	0	0
1.49	-1.52125	1.52907	-0.00725574	0.724464	0.176663	1.03058	0.295358	-0.0158946	-0.19975	0	-0.157724	0	0	-0.290599	-0.030998	-0.354558	0.156087	-0.103108	0	0	-0.442798	0.13191	-0.11064	-0.189208	-0.434251	0.185465	0.951736	0.916528	0	0	0.196873	-0.648928	0.214457	1.0589	1.31302	0	0
1.5	-1.50097	1.5292	-0.0217538	0.72335	0.162722	1.02834	0.291391	-0.0141635	-0.198492	0	-0.158364	0	0	-0.300298	-0.0363881	-0.351752	0.165255	-0.10492	0	0	-0.443777	0.134985	-0.110996	-0.191079	-0.429663	0.17712	0.950197	0.931276	0	0	0.199667	-0.65051	0.216703	1.0615	1.31509	0	0
1.51	-1.35624	1.52579	-0.159999	0.722401	0.148524	1.02677	0.280427	-0.00900186	-0.19825	0	-0.159628	0	0	-0.314666	-0.0463806	-0.354982	0.178635	-0.0948868	0	0	-0.453355	0.141274	-0.110842	-0.187964	-0.436612	0.190663	0.952637	0.9016	0	0	0.201129	-0.654489	0.219677	1.06896	1.31244	0	0
1.52	-1.29778	1.52206	-0.212916	0.721338	0.133805	1.0252	0.271904	-0.00268178	-0.191238	0	-0.164003	0	0	-0.326354	-0.0555995	-0.35231	0.189143	-0.101992	0	0	-0.457078	0.148117	-0.109718	-0.188405	-0.435794	0.18914	0.950673	0.903022	0	0	0.199912	-0.652373	0.216988	1.07039	1.31755	0	0
1.53	-1.22433	1.51632	-0.280411	0.720358	0.118669	1.02391	0.26002	0.00607665	-0.184554	0	-0.170732	0	0	-0.339086	-0.0671131	-0.350499	0.201632	-0.111038	0	0	-0.462531	0.157041	-0.108601	-0.188895	-0.435664	0.187936	0.949017	0.903332	0	0	0.19598	-0.649378	0.212574	1.07238	1.3225	0	0
1.54	-1.16042	1.50904	-0.338592	0.719401	0.103258	1.02288	0.247595	0.0166399	-0.179018	0	-0.188343	0	0	-0.351144	-0.0802704	-0.349519	0.216551	-0.126801	0	0	-0.46917	0.167725	-0.107835	-0.188745	-0.43636	0.18758	0.947883	0.902597	0	0	0.188887	-0.644863	0.204337	1.07423	1.32894	0	0
1.55	-1.13454	1.50075	-0.360298	0.718376	0.0878053	1.02219	0.238202	0.0281095	-0.171382	0	-0.249708	0	0	-0.359914	-0.095172	-0.350768	0.23389	-0.192872	0	0	-0.475296	0.178734	-0.112995	-0.175993	-0.444757	0.214159	0.941699	0.874126	0	0	0.166525	-0.636006	0.169613	1.08109	1.35017	0	0
1.56	-1.18169	1.49408	-0.311716	0.716885	0.0724184	1.02137	0.237334	0.0395127	-0.157678	0.000484218	-0.276525	0	0	-0.362783	-0.111315	-0.34473	0.247895	-0.234777	0	0	-0.47468	0.18885	-0.108523	-0.172954	-0.446562	0.220827	0.936072	0.863682	0	0	0.157498	-0.628095	0.160768	1.07784	1.35588	0	0
1.57	-1.2375	1.4863	-0.256442	0.715083	0.0570857	1.02089	0.242199	0.0520002	-0.156396	0.0261443	-0.279346	0	0	-0.364073	-0.130354	-0.337865	0.256854	-0.279149	0	0	-0.473525	0.199068	-0.100388	-0.171498	-0.447356	0.224354	0.93124	0.855088	0	0	0.150241	-0.619178	0.154821	1.07212	1.35898	0	0
1.58	-1.27595	1.47817	-0.219477	0.713302	0.0418771	1.02095	0.24771	0.06349	-0.161409	0.0615809	-0.261342	0	0	-0.359333	-0.147556	-0.336878	0.281036	-0.328399	0	0	-0.473982	0.209015	-0.0907747	-0.170209	-0.448055	0.226654	0.927313	0.846688	0	0	0.143773	-0.608605	0.148767	1.0646	1.36107	0	0
1.59	-1.29473	1.46968	-0.203128	0.711373	0.0268343	1.02137	0.26179	0.0694511	-0.183543	0.128424	-0.223363	0	0	-0.352025	-0.164813	-0.336126	0.313553	-0.38693	0	0	-0.477304	0.219109	-0.081137	-0.168707	-0.448394	0.227216	0.925782	0.840278	0	0	0.135704	-0.598866	0.14255	1.05774	1.36095	0	0
1.6	-1.28784	1.4606	-0.212017	0.709662	0.0120947	1.02227	0.268061	0.078528	-0.195435	0.182635	-0.19835	0	0	-0.34398	-0.182242	-0.331785	0.35124	-0.427872	0	0	-0.484072	0.230322	-0.0716279	-0.167157	-0.448588	0.22537	0.925713	0.838128	0	0	0.128873	-0.58962	0.139727	1.04964	1.35745	0	0
1.61	-1.26318	1.45341	-0.237988	0.707997	-0.00244197	1.02332	0.272471	0.0843875	-0.212111	0.23788	-0.164697	0	0	-0.334379	-0.198541	-0.330385	0.391478	-0.523388	0	0	-0.492428	0.239307	-0.0651289	-0.162863	-0.449828	0.229867	0.925079	0.829116	0	0	0.119936	-0.581842	0.135589	1.04291	1.35215	0	0
